# xmcd CD database file
#
# Track frame offsets:
#	150
#	12838
#	28765
#	46290
#	57477
#	71067
#	86317
#	99719
#	112386
#	125549
#
# Disc length: 1906 seconds
#
# Revision: 0
# Processed by: cddbd v1.5PL3 Copyright (c) Steve Scherf et al.
# Submitted via: CDex 1.51
#
DISCID=8b07700a
DTITLE=玉露茶房 - Green Cherry
DYEAR=2003
DGENRE=Game
TTITLE0=King-Kong-Jack-Party
TTITLE1=Double Flapper
TTITLE2=15，JULY
TTITLE3=When I Wish Upon a Star
TTITLE4=Tiresome Snow
TTITLE5=黄昏ゆく街
TTITLE6=らんぶるそんぐ
TTITLE7=優しさの雨に抱かれて
TTITLE8=Afternoon BookParty
TTITLE9=Calmly Wind
EXTD=YEAR: 2003
EXTT0=
EXTT1=
EXTT2=
EXTT3=
EXTT4=
EXTT5=
EXTT6=
EXTT7=
EXTT8=
EXTT9=
PLAYORDER=
